{
    "asset" : {
        "generator" : "Khronos glTF Blender I/O v0.9.36",
        "version" : "2.0"
    },
    "scene" : 0,
    "scenes" : [
        {
            "name" : "Scene",
            "nodes" : [
                0
            ]
        }
    ],
    "nodes" : [
        {
            "mesh" : 0,
            "name" : "triangulo integra.002",
            "rotation" : [
                0,
                1,
                0,
                -4.371138828673793e-08
            ],
            "scale" : [
                0.026143904775381088,
                0.026143904775381088,
                0.026143904775381088
            ]
        }
    ],
    "materials" : [
        {
            "doubleSided" : true,
            "name" : "191,191,191",
            "pbrMetallicRoughness" : {
                "baseColorFactor" : [
                    0.749019980430603,
                    0,
                    0.0003302902332507074,
                    1
                ],
                "metallicFactor" : 0,
                "roughnessFactor" : 0.4226497411727905
            }
        },
        {
            "doubleSided" : true,
            "name" : "Material.003",
            "pbrMetallicRoughness" : {
                "baseColorFactor" : [
                    0.031972385942935944,
                    0.8000000715255737,
                    0,
                    1
                ],
                "metallicFactor" : 0,
                "roughnessFactor" : 0.5
            }
        },
        {
            "doubleSided" : true,
            "name" : "Material.001",
            "pbrMetallicRoughness" : {
                "baseColorFactor" : [
                    0.6601790189743042,
                    0.8000000715255737,
                    0,
                    1
                ],
                "metallicFactor" : 0,
                "roughnessFactor" : 0.5
            }
        }
    ],
    "meshes" : [
        {
            "name" : "triangulo integra.002",
            "primitives" : [
                {
                    "attributes" : {
                        "POSITION" : 0,
                        "NORMAL" : 1
                    },
                    "indices" : 2,
                    "material" : 0
                },
                {
                    "attributes" : {
                        "POSITION" : 3,
                        "NORMAL" : 4
                    },
                    "indices" : 5,
                    "material" : 1
                },
                {
                    "attributes" : {
                        "POSITION" : 6,
                        "NORMAL" : 7
                    },
                    "indices" : 8,
                    "material" : 2
                }
            ]
        }
    ],
    "accessors" : [
        {
            "bufferView" : 0,
            "componentType" : 5126,
            "count" : 761,
            "max" : [
                995.6280517578125,
                127,
                875.5733642578125
            ],
            "min" : [
                -1100.5711669921875,
                -127.00000762939453,
                146.7374267578125
            ],
            "type" : "VEC3"
        },
        {
            "bufferView" : 1,
            "componentType" : 5126,
            "count" : 761,
            "type" : "VEC3"
        },
        {
            "bufferView" : 2,
            "componentType" : 5123,
            "count" : 1416,
            "type" : "SCALAR"
        },
        {
            "bufferView" : 3,
            "componentType" : 5126,
            "count" : 2554,
            "max" : [
                1029.5687255859375,
                126.99996948242188,
                752.5494384765625
            ],
            "min" : [
                -50.673583984375,
                -127.00001525878906,
                -1062.81201171875
            ],
            "type" : "VEC3"
        },
        {
            "bufferView" : 4,
            "componentType" : 5126,
            "count" : 2554,
            "type" : "VEC3"
        },
        {
            "bufferView" : 5,
            "componentType" : 5123,
            "count" : 4800,
            "type" : "SCALAR"
        },
        {
            "bufferView" : 6,
            "componentType" : 5126,
            "count" : 2080,
            "max" : [
                75.5897216796875,
                126.99996948242188,
                754.123046875
            ],
            "min" : [
                -1131.21337890625,
                -127.00001525878906,
                -1061.239990234375
            ],
            "type" : "VEC3"
        },
        {
            "bufferView" : 7,
            "componentType" : 5126,
            "count" : 2080,
            "type" : "VEC3"
        },
        {
            "bufferView" : 8,
            "componentType" : 5123,
            "count" : 3936,
            "type" : "SCALAR"
        }
    ],
    "bufferViews" : [
        {
            "buffer" : 0,
            "byteLength" : 9132,
            "byteOffset" : 0
        },
        {
            "buffer" : 0,
            "byteLength" : 9132,
            "byteOffset" : 9132
        },
        {
            "buffer" : 0,
            "byteLength" : 2832,
            "byteOffset" : 18264
        },
        {
            "buffer" : 0,
            "byteLength" : 30648,
            "byteOffset" : 21096
        },
        {
            "buffer" : 0,
            "byteLength" : 30648,
            "byteOffset" : 51744
        },
        {
            "buffer" : 0,
            "byteLength" : 9600,
            "byteOffset" : 82392
        },
        {
            "buffer" : 0,
            "byteLength" : 24960,
            "byteOffset" : 91992
        },
        {
            "buffer" : 0,
            "byteLength" : 24960,
            "byteOffset" : 116952
        },
        {
            "buffer" : 0,
            "byteLength" : 7872,
            "byteOffset" : 141912
        }
    ],
    "buffers" : [
        {
            "byteLength" : 149784,
            "uri" : "data:application/octet-stream;base64,"
        }
    ]
}
