{
    "asset" : {
        "generator" : "Khronos glTF Blender I/O v0.9.36",
        "version" : "2.0"
    },
    "scene" : 0,
    "scenes" : [
        {
            "name" : "Scene",
            "nodes" : [
                0,
                1
            ]
        }
    ],
    "nodes" : [
        {
            "mesh" : 0,
            "name" : "Text",
            "scale" : [
                1.6977936029434204,
                1,
                1.6977936029434204
            ],
            "translation" : [
                0,
                0,
                -1.191307544708252
            ]
        },
        {
            "mesh" : 1,
            "name" : "Text.001",
            "translation" : [
                0,
                0,
                1.5748460292816162
            ]
        }
    ],
    "materials" : [
        {
            "doubleSided" : true,
            "name" : "Rojo",
            "pbrMetallicRoughness" : {
                "baseColorFactor" : [
                    1,
                    0.0015590859111398458,
                    0,
                    1
                ],
                "metallicFactor" : 0,
                "roughnessFactor" : 0.5
            }
        },
        {
            "doubleSided" : true,
            "name" : "Blanco",
            "pbrMetallicRoughness" : {
                "baseColorFactor" : [
                    1,
                    1,
                    1,
                    1
                ],
                "metallicFactor" : 0,
                "roughnessFactor" : 0.5
            }
        }
    ],
    "meshes" : [
        {
            "name" : "Text",
            "primitives" : [
                {
                    "attributes" : {
                        "POSITION" : 0,
                        "NORMAL" : 1
                    },
                    "indices" : 2,
                    "material" : 0
                }
            ]
        },
        {
            "name" : "Text.001",
            "primitives" : [
                {
                    "attributes" : {
                        "POSITION" : 3,
                        "NORMAL" : 4
                    },
                    "indices" : 5,
                    "material" : 1
                }
            ]
        }
    ],
    "accessors" : [
        {
            "bufferView" : 0,
            "componentType" : 5126,
            "count" : 1879,
            "max" : [
                1.2610000371932983,
                0.20000000298023224,
                0.34550002217292786
            ],
            "min" : [
                -1.261000156402588,
                -0.20000000298023224,
                -0.34550002217292786
            ],
            "type" : "VEC3"
        },
        {
            "bufferView" : 1,
            "componentType" : 5126,
            "count" : 1879,
            "type" : "VEC3"
        },
        {
            "bufferView" : 2,
            "componentType" : 5123,
            "count" : 4824,
            "type" : "SCALAR"
        },
        {
            "bufferView" : 3,
            "componentType" : 5126,
            "count" : 31957,
            "max" : [
                8.26300048828125,
                0.20000000298023224,
                1.4605000019073486
            ],
            "min" : [
                -8.263001441955566,
                -0.20000000298023224,
                -1.4605000019073486
            ],
            "type" : "VEC3"
        },
        {
            "bufferView" : 4,
            "componentType" : 5126,
            "count" : 31957,
            "type" : "VEC3"
        },
        {
            "bufferView" : 5,
            "componentType" : 5123,
            "count" : 80724,
            "type" : "SCALAR"
        }
    ],
    "bufferViews" : [
        {
            "buffer" : 0,
            "byteLength" : 22548,
            "byteOffset" : 0
        },
        {
            "buffer" : 0,
            "byteLength" : 22548,
            "byteOffset" : 22548
        },
        {
            "buffer" : 0,
            "byteLength" : 9648,
            "byteOffset" : 45096
        },
        {
            "buffer" : 0,
            "byteLength" : 383484,
            "byteOffset" : 54744
        },
        {
            "buffer" : 0,
            "byteLength" : 383484,
            "byteOffset" : 438228
        },
        {
            "buffer" : 0,
            "byteLength" : 161448,
            "byteOffset" : 821712
        }
    ],
    "buffers" : [
        {
            "byteLength" : 983160,
            "uri" : "data:application/octet-stream;base64,"
        }
    ]
}
