{
    "asset" : {
        "generator" : "Khronos glTF Blender I/O v0.9.36",
        "version" : "2.0"
    },
    "scene" : 0,
    "scenes" : [
        {
            "name" : "Scene",
            "nodes" : [
                0,
                1
            ]
        }
    ],
    "nodes" : [
        {
            "mesh" : 0,
            "name" : "Text.002",
            "scale" : [
                1.6977936029434204,
                1,
                1.6977936029434204
            ],
            "translation" : [
                0,
                0,
                -1.191307544708252
            ]
        },
        {
            "mesh" : 1,
            "name" : "Text.003",
            "translation" : [
                0,
                0,
                1.5748460292816162
            ]
        }
    ],
    "materials" : [
        {
            "doubleSided" : true,
            "name" : "Material.001",
            "pbrMetallicRoughness" : {
                "baseColorFactor" : [
                    1,
                    0,
                    0.002094060881063342,
                    1
                ],
                "metallicFactor" : 0,
                "roughnessFactor" : 0.5
            }
        },
        {
            "doubleSided" : true,
            "name" : "Blanco",
            "pbrMetallicRoughness" : {
                "baseColorFactor" : [
                    1,
                    1,
                    1,
                    1
                ],
                "metallicFactor" : 0,
                "roughnessFactor" : 0.5
            }
        }
    ],
    "meshes" : [
        {
            "name" : "Text.002",
            "primitives" : [
                {
                    "attributes" : {
                        "POSITION" : 0,
                        "NORMAL" : 1
                    },
                    "indices" : 2,
                    "material" : 0
                }
            ]
        },
        {
            "name" : "Text.003",
            "primitives" : [
                {
                    "attributes" : {
                        "POSITION" : 3,
                        "NORMAL" : 4
                    },
                    "indices" : 5,
                    "material" : 1
                }
            ]
        }
    ],
    "accessors" : [
        {
            "bufferView" : 0,
            "componentType" : 5126,
            "count" : 1847,
            "max" : [
                1.1725000143051147,
                0.20000000298023224,
                0.34550002217292786
            ],
            "min" : [
                -1.245500087738037,
                -0.20000000298023224,
                -0.34550002217292786
            ],
            "type" : "VEC3"
        },
        {
            "bufferView" : 1,
            "componentType" : 5126,
            "count" : 1847,
            "type" : "VEC3"
        },
        {
            "bufferView" : 2,
            "componentType" : 5123,
            "count" : 4728,
            "type" : "SCALAR"
        },
        {
            "bufferView" : 3,
            "componentType" : 5126,
            "count" : 38390,
            "max" : [
                7.632499694824219,
                0.20000000298023224,
                1.4605000019073486
            ],
            "min" : [
                -7.660501003265381,
                -0.20000000298023224,
                -1.4609074592590332
            ],
            "type" : "VEC3"
        },
        {
            "bufferView" : 4,
            "componentType" : 5126,
            "count" : 38390,
            "type" : "VEC3"
        },
        {
            "bufferView" : 5,
            "componentType" : 5123,
            "count" : 96924,
            "type" : "SCALAR"
        }
    ],
    "bufferViews" : [
        {
            "buffer" : 0,
            "byteLength" : 22164,
            "byteOffset" : 0
        },
        {
            "buffer" : 0,
            "byteLength" : 22164,
            "byteOffset" : 22164
        },
        {
            "buffer" : 0,
            "byteLength" : 9456,
            "byteOffset" : 44328
        },
        {
            "buffer" : 0,
            "byteLength" : 460680,
            "byteOffset" : 53784
        },
        {
            "buffer" : 0,
            "byteLength" : 460680,
            "byteOffset" : 514464
        },
        {
            "buffer" : 0,
            "byteLength" : 193848,
            "byteOffset" : 975144
        }
    ],
    "buffers" : [
        {
            "byteLength" : 1168992,
            "uri" : "data:application/octet-stream;base64,"
        }
    ]
}
